<svg xmlns="http://www.w3.org/2000/svg" fill="none" viewBox="0 0 132 24"><g fill="#101010" clip-path="url(#a)"><path d="M20.347 20.486a12.013 12.013 0 0 0 2.707-4.204c.598-1.577.86-3.264.766-4.95l-6.282 6.326-6.283 6.325c1.675.093 3.35-.17 4.917-.772a11.909 11.909 0 0 0 4.175-2.724v-.001ZM14.202 14.299l1.213-3.546a5.996 5.996 0 0 1 1.421-2.288l4.185-4.213a12.024 12.024 0 0 1 2.411 4.643l-3.084 3.106a5.954 5.954 0 0 1-2.273 1.43l-3.522 1.222-1.213 3.546a5.996 5.996 0 0 1-1.42 2.288l-3.086 3.105a11.899 11.899 0 0 1-4.611-2.428l4.184-4.213a5.96 5.96 0 0 1 2.273-1.43l3.521-1.222h.001ZM9.637 9.702l3.521-1.222a5.944 5.944 0 0 0 2.273-1.43l4.184-4.213A11.888 11.888 0 0 0 15.003.409L11.92 3.515a6.006 6.006 0 0 0-1.421 2.288L9.285 9.348 5.763 10.57A5.944 5.944 0 0 0 3.49 12L.406 15.106a12.035 12.035 0 0 0 2.412 4.643l4.184-4.213a6.012 6.012 0 0 0 1.421-2.288l1.214-3.545v-.001ZM3.49 3.514A11.915 11.915 0 0 1 7.667.79a11.856 11.856 0 0 1 4.917-.772L6.3 6.343.018 12.668a12.082 12.082 0 0 1 .766-4.95 12.005 12.005 0 0 1 2.707-4.203ZM117.181 20.002h3.337v-7.318l6.829 7.302H132l-8.13-8.516 7.535-7.492h-4.856l-6.031 6.482V3.994h-3.337v16.008ZM114.425 3.994h-3.337v16.008h3.337V3.994ZM94.265 3.994 99.512 20h5.122l5.248-16.007h-3.54l-4.261 13.279-4.276-13.28h-3.54ZM87.42 3.994H80.4v16.008h6.987c4.778 0 6.94-2.887 6.94-7.95 0-5.062-2.13-8.058-6.909-8.058h.001Zm0 13.295h-3.682V6.69h3.681c2.569 0 3.54 1.783 3.54 5.363 0 3.58-.987 5.236-3.54 5.236ZM63.64 20.002h3.258V6.531l6.156 13.469h4.668V3.994h-3.258v12.111L68.997 3.994H63.64v16.008ZM31.747 14.245c-.125 4.447 2.71 6.025 7.394 6.025 3.963 0 6.986-1.452 6.986-5.33 0-3.47-2.585-4.117-5.45-4.4l-2.915-.269c-1.754-.157-2.38-.693-2.38-2.018 0-1.577 1.096-2.319 3.399-2.319s3.681.804 3.712 3.092h3.493c0-3.707-1.722-5.473-7.268-5.473-4.449 0-6.923 1.687-6.923 4.952 0 3.044 2.051 4.116 4.871 4.4l3.212.315c2.286.237 2.757.867 2.757 2.034 0 1.94-1.097 2.524-3.493 2.524-3.243 0-3.76-1.624-3.729-3.533h-3.666ZM57.123 3.994h-5.388L46.3 20h3.43l1.254-3.69h6.923L59.144 20h3.446L57.123 3.994Zm-5.184 9.525 2.522-7.38 2.49 7.38H51.94Z"/></g><defs><clipPath id="a"><path fill="#fff" d="M0 0h132v24H0z"/></clipPath></defs></svg>